<svg xmlns="http://www.w3.org/2000/svg" width="512" height="512" style="" viewBox="0 0 512 512" data-svgdocument="" id="_lozZXmrQ4Bjc2v8Jjk5tP" class="fl-svgdocument" x="0" y="0" xmlns:xlink="http://www.w3.org/1999/xlink">
  <defs id="_OCOhh_n_vN0Rio0Fz3bQR" transform="matrix(0.775489330291748, 0, 0, 0.775489330291748, -81.92650604248047, 101.79067993164062)">
    <linearGradient id="go_ekj5jb3d6_1194" x1="0%" y1="50%" x2="100%" y2="50%">
      <stop offset="14%" style="stop-color: rgb(255, 192, 74); stop-opacity: 1;" />
      <stop offset="100%" style="stop-color: rgb(255, 99, 71); stop-opacity: 1;" />
    </linearGradient>
  </defs>
  <path id="_tMLbDoPeHYDf8vvgFsJ3A" fill="url(#go_ekj5jb3d6_1194)" d="M96.897,37.513c1.921,0,3.478-1.558,3.478-3.479c0-1.92-1.557-3.478-3.478-3.478s-3.478,1.558-3.478,3.478  c0,0.422,0.079,0.825,0.217,1.2l-10.153,8.649l-12.864-7.567c0.073-0.297,0.116-0.607,0.116-0.927c0-2.142-1.736-3.878-3.878-3.878  c-0.869,0-1.668,0.289-2.314,0.772L52.92,23.054c0.054-0.22,0.086-0.448,0.086-0.684c0-1.581-1.281-2.861-2.861-2.861  s-2.861,1.281-2.861,2.861c0,0.729,0.275,1.393,0.724,1.898l-5.835,12.488c-0.26-0.045-0.526-0.074-0.8-0.074  c-0.86,0-1.662,0.239-2.351,0.647l-15.438-6.915c0.036-0.225,0.06-0.454,0.06-0.689c0-2.38-1.929-4.309-4.309-4.309  c-2.379,0-4.309,1.929-4.309,4.309s1.929,4.309,4.309,4.309c1.352,0,2.556-0.623,3.346-1.596l14.682,6.576  c-0.384,0.674-0.607,1.452-0.607,2.284c0,0.852,0.293,1.605,0.694,2.29l-8.233,8.237c-1.136-0.811-2.506-1.294-4.003-1.294  c-2.642,0-4.915,1.501-6.082,3.684l-0.096-0.032c-0.001,0.012-0.004,0.023-0.005,0.035L7.553,49.002  c0.016-0.134,0.025-0.271,0.025-0.409c0-1.989-1.612-3.601-3.601-3.601s-3.601,1.612-3.601,3.601s1.612,3.601,3.601,3.601  c1.054,0,1.999-0.455,2.657-1.177l11.723,5.329c-0.005,0.013-0.009,0.025-0.015,0.037l0.056,0.019  c-0.054,0.348-0.108,0.694-0.108,1.055c0,1.954,0.813,3.716,2.115,4.975l-0.017,0.013c0.004,0.005,0.008,0.01,0.012,0.014  l-5.973,8.802c-0.155-0.027-0.314-0.044-0.478-0.044c-1.479,0-2.678,1.198-2.678,2.678c0,1.479,1.199,2.678,2.678,2.678  c1.479,0,2.678-1.199,2.678-2.678c0-0.501-0.14-0.969-0.38-1.37l5.364-7.904l0.71-0.877c0.881,0.407,1.859,0.641,2.894,0.641  c1.902,0,3.629-0.771,4.883-2.016l6.993,4.991c-0.199,0.514-0.334,1.06-0.334,1.641c0,2.548,2.065,4.617,4.617,4.617  c2.159,0,3.965-1.483,4.471-3.482l15.916-4.923c0.977,1.815,2.893,3.05,5.099,3.05c1.273,0,2.447-0.417,3.403-1.114l7.12,6.611  c-0.038,0.193-0.059,0.393-0.059,0.597c0,1.734,1.406,3.14,3.14,3.14s3.139-1.405,3.139-3.14c0-1.733-1.405-3.139-3.139-3.139  c-0.707,0-1.358,0.236-1.883,0.631l-6.811-6.323c0.552-0.887,0.893-1.93,0.893-3.05c0-2.815-1.661-5.16-4.661-5.677V39.104  c1-0.172,1.082-0.478,1.513-0.878l13.332,7.848l11.179,15.655c-0.092,0.23-0.146,0.481-0.146,0.745c0,1.125,0.91,2.037,2.035,2.037  s2.037-0.912,2.037-2.037s-0.913-2.037-2.038-2.037c-0.03,0-0.06,0.003-0.09,0.005L85.094,45.422l9.931-8.459  C95.565,37.31,96.207,37.513,96.897,37.513z M61.07,62.474c0,0.21,0.013,0.416,0.035,0.62l-15.275,4.724  c-0.522-1.975-2.316-3.435-4.458-3.435c-1.123,0-2.114,0.451-2.913,1.113l-7.038-5.022c0.447-0.92,0.717-1.93,0.717-3.017  c0-1.492-0.487-2.871-1.29-3.999l8.233-8.237c0.686,0.401,1.438,0.694,2.291,0.694c1.642,0,3.079-0.857,3.897-2.147l17.222,14.914  C61.609,59.699,61.07,61.022,61.07,62.474z M66,56.797c-1,0.1-1.135,0.273-1.596,0.502l-18.36-15.846  c0.002-0.052-0.023-0.102-0.023-0.154c0-1.485-0.718-2.802-1.806-3.646l5.799-12.428c0.046,0.002,0.088,0.007,0.134,0.007  c0.53,0,1.023-0.147,1.449-0.399l11.621,9.229c-0.151,0.415-0.113,0.861-0.113,1.328c0,1.757,0.895,3.238,2.895,3.715V56.797z" transform="matrix(2.5571670532226562, 0, 0, 2.5571670532226562, 127.18144226074219, 78.59379577636719)" />
  <path text="iTech" text-anchor="middle" font-size="100" letter-spacing="0" side="left" offset="0.5" dx="0" dy="0" space="preserve" href="" font-family="Montserrat" font-scale="contain" transform="matrix(0.7661141753196716, 0, 0, 0.7661141753196716, 253.93148803710938, 344.65985107421875)" x="0" y="0" fill="#3a3a3a" font-weight="700" data-fl-textpath="" id="_bACKzYL2clyS4dqlExFb0" d="M-128.25 0L-128.25-53.8L-112.64999999999999-53.8L-112.64999999999999 0L-128.25 0ZM-120.44999999999999-61.3Q-124.74999999999999-61.3 -127.44999999999999-63.8Q-130.14999999999998-66.3 -130.14999999999998-70L-130.14999999999998-70Q-130.14999999999998-73.7 -127.44999999999999-76.2Q-124.74999999999999-78.7 -120.44999999999999-78.7L-120.44999999999999-78.7Q-116.14999999999999-78.7 -113.44999999999999-76.3Q-110.74999999999999-73.9 -110.74999999999999-70.3L-110.74999999999999-70.3Q-110.74999999999999-66.4 -113.44999999999999-63.85Q-116.14999999999999-61.3 -120.44999999999999-61.3L-120.44999999999999-61.3ZM-88.94999999999999 0L-88.94999999999999-56.8L-111.34999999999998-56.8L-111.34999999999998-70L-50.34999999999999-70L-50.34999999999999-56.8L-72.74999999999999-56.8L-72.74999999999999 0L-88.94999999999999 0ZM 4.450000000000017-26.7Q 4.450000000000017-26.4  4.15000000000002-22.5L 4.15000000000002-22.5L-36.54999999999998-22.5Q-35.44999999999998-17.5 -31.34999999999998-14.6Q-27.249999999999982-11.7 -21.149999999999984-11.7L-21.149999999999984-11.7Q-16.94999999999998-11.7 -13.699999999999982-12.95Q-10.449999999999982-14.2 -7.649999999999984-16.9L-7.649999999999984-16.9L 0.6500000000000199-7.9Q-6.9499999999999815 0.8 -21.549999999999983 0.8L-21.549999999999983 0.8Q-30.64999999999998 0.8 -37.64999999999998-2.75Q-44.64999999999998-6.3 -48.44999999999998-12.6Q-52.24999999999998-18.9 -52.24999999999998-26.9L-52.24999999999998-26.9Q-52.24999999999998-34.8 -48.49999999999998-41.15Q-44.749999999999986-47.5 -38.19999999999998-51.05Q-31.64999999999998-54.6 -23.549999999999983-54.6L-23.549999999999983-54.6Q-15.649999999999984-54.6 -9.249999999999979-51.2Q-2.84999999999998-47.8  0.8000000000000185-41.45Q 4.450000000000017-35.1  4.450000000000017-26.7L 4.450000000000017-26.7ZM-23.44999999999998-42.8Q-28.749999999999982-42.8 -32.34999999999998-39.8Q-35.94999999999998-36.8 -36.749999999999986-31.6L-36.749999999999986-31.6L-10.249999999999979-31.6Q-11.049999999999983-36.7 -14.649999999999984-39.75Q-18.24999999999998-42.8 -23.44999999999998-42.8L-23.44999999999998-42.8ZM 40.85000000000002 0.8Q 32.25000000000002 0.8  25.40000000000002-2.75Q 18.55000000000002-6.3  14.70000000000002-12.6Q 10.85000000000002-18.9  10.85000000000002-26.9L 10.85000000000002-26.9Q 10.85000000000002-34.9  14.70000000000002-41.2Q 18.55000000000002-47.5  25.40000000000002-51.05Q 32.25000000000002-54.6  40.85000000000002-54.6L 40.85000000000002-54.6Q 49.35000000000002-54.6  55.70000000000002-51.05Q 62.05000000000002-47.5  64.95000000000002-40.9L 64.95000000000002-40.9L 52.85000000000002-34.4Q 48.65000000000002-41.8  40.75000000000002-41.8L 40.75000000000002-41.8Q 34.65000000000002-41.8  30.65000000000002-37.8Q 26.65000000000002-33.8  26.65000000000002-26.9L 26.65000000000002-26.9Q 26.65000000000002-20  30.65000000000002-16Q 34.65000000000002-12  40.75000000000002-12L 40.75000000000002-12Q 48.75000000000002-12  52.85000000000002-19.4L 52.85000000000002-19.4L 64.95000000000002-12.8Q 62.05000000000002-6.4  55.70000000000002-2.8Q 49.35000000000002 0.8  40.85000000000002 0.8L 40.85000000000002 0.8ZM 106.25000000000003-54.6Q 116.25000000000003-54.6  122.40000000000002-48.6Q 128.55-42.6  128.55-30.8L 128.55-30.8L 128.55 0L 112.95000000000002 0L 112.95000000000002-28.4Q 112.95000000000002-34.8  110.15000000000002-37.95Q 107.35000000000002-41.1  102.05000000000003-41.1L 102.05000000000003-41.1Q 96.15000000000002-41.1  92.65000000000002-37.45Q 89.15000000000002-33.8  89.15000000000002-26.6L 89.15000000000002-26.6L 89.15000000000002 0L 73.55000000000003 0L 73.55000000000003-74.2L 89.15000000000002-74.2L 89.15000000000002-48.2Q 92.25000000000003-51.3  96.65000000000002-52.95Q 101.05000000000003-54.6  106.25000000000003-54.6L 106.25000000000003-54.6Z" />
  <path text="Specialists" text-anchor="middle" font-size="100" letter-spacing="0" side="left" offset="0.5" dx="0" dy="0" space="preserve" href="" font-family="Montserrat" font-scale="contain" transform="matrix(0.41145509481430054, 0, 0, 0.41145509481430054, 254.8890838623047, 383.5184326171875)" x="0" y="0" fill="#ff6347" data-fl-textpath="" id="_BV8dN3jNM7w4h0tzBWsKw" d="M-231.35000000000002 0.6Q-239.15 0.6 -246.3-1.9Q-253.45000000000002-4.4 -257.35-8.5L-257.35-8.5L-254.45000000000002-14.2Q-250.65-10.4 -244.35000000000002-8.05Q-238.05-5.7 -231.35000000000002-5.7L-231.35000000000002-5.7Q-221.95000000000002-5.7 -217.25-9.15Q-212.55-12.6 -212.55-18.1L-212.55-18.1Q-212.55-22.3 -215.10000000000002-24.8Q-217.65-27.3 -221.35000000000002-28.65Q-225.05-30 -231.65-31.6L-231.65-31.6Q-239.55-33.6 -244.25-35.45Q-248.95000000000002-37.3 -252.3-41.1Q-255.65-44.9 -255.65-51.4L-255.65-51.4Q-255.65-56.7 -252.85000000000002-61.05Q-250.05-65.4 -244.25-68Q-238.45000000000002-70.6 -229.85000000000002-70.6L-229.85000000000002-70.6Q-223.85000000000002-70.6 -218.10000000000002-68.95Q-212.35000000000002-67.3 -208.15-64.4L-208.15-64.4L-210.65-58.5Q-215.05-61.4 -220.05-62.85Q-225.05-64.3 -229.85000000000002-64.3L-229.85000000000002-64.3Q-239.05-64.3 -243.70000000000002-60.75Q-248.35000000000002-57.2 -248.35000000000002-51.6L-248.35000000000002-51.6Q-248.35000000000002-47.4 -245.8-44.85Q-243.25-42.3 -239.4-40.95Q-235.55-39.6 -229.05-38L-229.05-38Q-221.35000000000002-36.1 -216.60000000000002-34.25Q-211.85000000000002-32.4 -208.55-28.65Q-205.25-24.9 -205.25-18.5L-205.25-18.5Q-205.25-13.2 -208.10000000000002-8.85Q-210.95000000000002-4.5 -216.85000000000002-1.95Q-222.75 0.6 -231.35000000000002 0.6L-231.35000000000002 0.6ZM-163.55-53Q-156.15-53 -150.15-49.65Q-144.15-46.3 -140.75-40.2Q-137.35000000000002-34.1 -137.35000000000002-26.3L-137.35000000000002-26.3Q-137.35000000000002-18.4 -140.75-12.3Q-144.15-6.2 -150.10000000000002-2.85Q-156.05 0.5 -163.55 0.5L-163.55 0.5Q-169.95000000000002 0.5 -175.10000000000002-2.15Q-180.25-4.8 -183.55-9.9L-183.55-9.9L-183.55 19.4L-190.65 19.4L-190.65-52.6L-183.85000000000002-52.6L-183.85000000000002-42.2Q-180.65-47.4 -175.4-50.2Q-170.15-53 -163.55-53L-163.55-53ZM-164.05-5.8Q-158.55-5.8 -154.05-8.35Q-149.55-10.9 -147-15.6Q-144.45000000000002-20.3 -144.45000000000002-26.3L-144.45000000000002-26.3Q-144.45000000000002-32.3 -147-36.95Q-149.55-41.6 -154.05-44.2Q-158.55-46.8 -164.05-46.8L-164.05-46.8Q-169.65-46.8 -174.10000000000002-44.2Q-178.55-41.6 -181.10000000000002-36.95Q-183.65-32.3 -183.65-26.3L-183.65-26.3Q-183.65-20.3 -181.10000000000002-15.6Q-178.55-10.9 -174.10000000000002-8.35Q-169.65-5.8 -164.05-5.8L-164.05-5.8ZM-76.95-26.3L-77.05-24.1L-121.05-24.1Q-120.45-15.9 -114.75-10.85Q-109.05-5.8 -100.35-5.8L-100.35-5.8Q-95.45-5.8 -91.35-7.55Q-87.25-9.3 -84.25-12.7L-84.25-12.7L-80.25-8.1Q-83.75-3.9 -89-1.7Q-94.25 0.5 -100.55 0.5L-100.55 0.5Q-108.65 0.5 -114.9-2.95Q-121.15-6.4 -124.65-12.5Q-128.15-18.6 -128.15-26.3L-128.15-26.3Q-128.15-34 -124.8-40.1Q-121.45-46.2 -115.6-49.6Q-109.75-53 -102.45-53L-102.45-53Q-95.15-53 -89.35-49.6Q-83.55-46.2 -80.25-40.15Q-76.95-34.1 -76.95-26.3L-76.95-26.3ZM-102.45-46.9Q-110.05-46.9 -115.2-42.05Q-120.35-37.2 -121.05-29.4L-121.05-29.4L-83.75-29.4Q-84.45-37.2 -89.6-42.05Q-94.75-46.9 -102.45-46.9L-102.45-46.9ZM-40.64999999999999 0.5Q-48.449999999999996 0.5 -54.599999999999994-2.9Q-60.74999999999999-6.3 -64.25-12.45Q-67.75-18.6 -67.75-26.3L-67.75-26.3Q-67.75-34 -64.25-40.1Q-60.74999999999999-46.2 -54.599999999999994-49.6Q-48.449999999999996-53 -40.64999999999999-53L-40.64999999999999-53Q-33.849999999999994-53 -28.499999999999993-50.35Q-23.14999999999999-47.7 -20.049999999999997-42.6L-20.049999999999997-42.6L-25.349999999999994-39Q-27.949999999999996-42.9 -31.949999999999996-44.85Q-35.949999999999996-46.8 -40.64999999999999-46.8L-40.64999999999999-46.8Q-46.349999999999994-46.8 -50.89999999999999-44.25Q-55.449999999999996-41.7 -57.99999999999999-37Q-60.55-32.3 -60.55-26.3L-60.55-26.3Q-60.55-20.2 -57.99999999999999-15.55Q-55.449999999999996-10.9 -50.89999999999999-8.35Q-46.349999999999994-5.8 -40.64999999999999-5.8L-40.64999999999999-5.8Q-35.949999999999996-5.8 -31.949999999999996-7.7Q-27.949999999999996-9.6 -25.349999999999994-13.5L-25.349999999999994-13.5L-20.049999999999997-9.9Q-23.14999999999999-4.8 -28.549999999999997-2.15Q-33.949999999999996 0.5 -40.64999999999999 0.5L-40.64999999999999 0.5ZM-6.14999999999999 0L-6.14999999999999-52.6L 0.95000000000001-52.6L 0.95000000000001 0L-6.14999999999999 0ZM-2.54999999999999-64.1Q-4.749999999999989-64.1 -6.249999999999989-65.6Q-7.749999999999989-67.1 -7.749999999999989-69.2L-7.749999999999989-69.2Q-7.749999999999989-71.2 -6.249999999999989-72.7Q-4.749999999999989-74.2 -2.54999999999999-74.2L-2.54999999999999-74.2Q-0.34999999999999076-74.2  1.1500000000000092-72.75Q 2.6500000000000092-71.3  2.6500000000000092-69.3L 2.6500000000000092-69.3Q 2.6500000000000092-67.1  1.1500000000000092-65.6Q-0.34999999999999076-64.1 -2.54999999999999-64.1L-2.54999999999999-64.1ZM 39.150000000000006-53Q 49.45000000000001-53  54.95000000000001-47.85Q 60.45000000000001-42.7  60.45000000000001-32.6L 60.45000000000001-32.6L 60.45000000000001 0L 53.650000000000006 0L 53.650000000000006-8.2Q 51.25000000000001-4.1  46.60000000000001-1.8Q 41.95000000000001 0.5  35.55000000000001 0.5L 35.55000000000001 0.5Q 26.750000000000007 0.5  21.550000000000008-3.7Q 16.35000000000001-7.9  16.35000000000001-14.8L 16.35000000000001-14.8Q 16.35000000000001-21.5  21.20000000000001-25.6Q 26.050000000000008-29.7  36.650000000000006-29.7L 36.650000000000006-29.7L 53.35000000000001-29.7L 53.35000000000001-32.9Q 53.35000000000001-39.7  49.55000000000001-43.25Q 45.75000000000001-46.8  38.45000000000001-46.8L 38.45000000000001-46.8Q 33.45000000000001-46.8  28.85000000000001-45.15Q 24.250000000000007-43.5  20.95000000000001-40.6L 20.95000000000001-40.6L 17.750000000000007-45.9Q 21.750000000000007-49.3  27.35000000000001-51.15Q 32.95000000000001-53  39.150000000000006-53L 39.150000000000006-53ZM 36.650000000000006-5.1Q 42.650000000000006-5.1  46.95000000000001-7.85Q 51.25000000000001-10.6  53.35000000000001-15.8L 53.35000000000001-15.8L 53.35000000000001-24.4L 36.85000000000001-24.4Q 23.35000000000001-24.4  23.35000000000001-15L 23.35000000000001-15Q 23.35000000000001-10.4  26.85000000000001-7.75Q 30.35000000000001-5.1  36.650000000000006-5.1L 36.650000000000006-5.1ZM 79.75000000000001 0L 79.75000000000001-74.2L 86.85000000000001-74.2L 86.85000000000001 0L 79.75000000000001 0ZM 106.65000000000002 0L 106.65000000000002-52.6L 113.75000000000001-52.6L 113.75000000000001 0L 106.65000000000002 0ZM 110.25000000000001-64.1Q 108.05000000000001-64.1  106.55000000000001-65.6Q 105.05000000000001-67.1  105.05000000000001-69.2L 105.05000000000001-69.2Q 105.05000000000001-71.2  106.55000000000001-72.7Q 108.05000000000001-74.2  110.25000000000001-74.2L 110.25000000000001-74.2Q 112.45000000000002-74.2  113.95000000000002-72.75Q 115.45000000000002-71.3  115.45000000000002-69.3L 115.45000000000002-69.3Q 115.45000000000002-67.1  113.95000000000002-65.6Q 112.45000000000002-64.1  110.25000000000001-64.1L 110.25000000000001-64.1ZM 147.65000000000003 0.5Q 141.25000000000003 0.5  135.40000000000003-1.35Q 129.55-3.2  126.25000000000001-6L 126.25000000000001-6L 129.45000000000002-11.6Q 132.75000000000003-9  137.75000000000003-7.35Q 142.75000000000003-5.7  148.15000000000003-5.7L 148.15000000000003-5.7Q 155.35000000000002-5.7  158.8-7.95Q 162.25000000000003-10.2  162.25000000000003-14.3L 162.25000000000003-14.3Q 162.25000000000003-17.2  160.35000000000002-18.85Q 158.45000000000002-20.5  155.55-21.35Q 152.65000000000003-22.2  147.85000000000002-23L 147.85000000000002-23Q 141.45000000000002-24.2  137.55-25.45Q 133.65000000000003-26.7  130.90000000000003-29.7Q 128.15000000000003-32.7  128.15000000000003-38L 128.15000000000003-38Q 128.15000000000003-44.6  133.65000000000003-48.8Q 139.15000000000003-53  148.95000000000002-53L 148.95000000000002-53Q 154.05-53  159.15000000000003-51.65Q 164.25000000000003-50.3  167.55-48.1L 167.55-48.1L 164.45000000000002-42.4Q 157.95000000000002-46.9  148.95000000000002-46.9L 148.95000000000002-46.9Q 142.15000000000003-46.9  138.70000000000002-44.5Q 135.25000000000003-42.1  135.25000000000003-38.2L 135.25000000000003-38.2Q 135.25000000000003-35.2  137.20000000000002-33.4Q 139.15000000000003-31.6  142.05-30.75Q 144.95000000000002-29.9  150.05-29L 150.05-29Q 156.35000000000002-27.8  160.15000000000003-26.6Q 163.95000000000002-25.4  166.65000000000003-22.5Q 169.35000000000002-19.6  169.35000000000002-14.5L 169.35000000000002-14.5Q 169.35000000000002-7.6  163.60000000000002-3.55Q 157.85000000000002 0.5  147.65000000000003 0.5L 147.65000000000003 0.5ZM 207.65-8.3L 210.15-3.2Q 208.15-1.4  205.20000000000002-0.45Q 202.25 0.5  199.05 0.5L 199.05 0.5Q 191.65 0.5  187.65-3.5Q 183.65-7.5  183.65-14.8L 183.65-14.8L 183.65-46.6L 174.25-46.6L 174.25-52.6L 183.65-52.6L 183.65-64.1L 190.75-64.1L 190.75-52.6L 206.75-52.6L 206.75-46.6L 190.75-46.6L 190.75-15.2Q 190.75-10.5  193.10000000000002-8.05Q 195.45000000000002-5.6  199.85000000000002-5.6L 199.85000000000002-5.6Q 202.05-5.6  204.10000000000002-6.3Q 206.15-7  207.65-8.3L 207.65-8.3ZM 237.15000000000003 0.5Q 230.75000000000003 0.5  224.90000000000003-1.35Q 219.05000000000004-3.2  215.75000000000003-6L 215.75000000000003-6L 218.95000000000005-11.6Q 222.25000000000003-9  227.25000000000003-7.35Q 232.25000000000003-5.7  237.65000000000003-5.7L 237.65000000000003-5.7Q 244.85000000000002-5.7  248.30000000000004-7.95Q 251.75000000000003-10.2  251.75000000000003-14.3L 251.75000000000003-14.3Q 251.75000000000003-17.2  249.85000000000002-18.85Q 247.95000000000005-20.5  245.05000000000004-21.35Q 242.15000000000003-22.2  237.35000000000002-23L 237.35000000000002-23Q 230.95000000000005-24.2  227.05000000000004-25.45Q 223.15000000000003-26.7  220.40000000000003-29.7Q 217.65000000000003-32.7  217.65000000000003-38L 217.65000000000003-38Q 217.65000000000003-44.6  223.15000000000003-48.8Q 228.65000000000003-53  238.45000000000005-53L 238.45000000000005-53Q 243.55000000000004-53  248.65000000000003-51.65Q 253.75000000000003-50.3  257.05-48.1L 257.05-48.1L 253.95000000000005-42.4Q 247.45000000000005-46.9  238.45000000000005-46.9L 238.45000000000005-46.9Q 231.65000000000003-46.9  228.20000000000005-44.5Q 224.75000000000003-42.1  224.75000000000003-38.2L 224.75000000000003-38.2Q 224.75000000000003-35.2  226.70000000000005-33.4Q 228.65000000000003-31.6  231.55000000000004-30.75Q 234.45000000000005-29.9  239.55000000000004-29L 239.55000000000004-29Q 245.85000000000002-27.8  249.65000000000003-26.6Q 253.45000000000005-25.4  256.15000000000003-22.5Q 258.85-19.6  258.85-14.5L 258.85-14.5Q 258.85-7.6  253.10000000000002-3.55Q 247.35000000000002 0.5  237.15000000000003 0.5L 237.15000000000003 0.5Z" />
</svg>